<svg width="17" height="17" viewBox="0 0 17 17" fill="none" xmlns="http://www.w3.org/2000/svg">
<path d="M15.2 16.25L12.8937 13.9625C12.6687 14.1 12.4281 14.2031 12.1719 14.2719C11.9156 14.3406 11.65 14.375 11.375 14.375C10.55 14.375 9.84375 14.0812 9.25625 13.4937C8.66875 12.9062 8.375 12.2 8.375 11.375C8.375 10.55 8.66875 9.84375 9.25625 9.25625C9.84375 8.66875 10.55 8.375 11.375 8.375C12.2 8.375 12.9062 8.66875 13.4937 9.25625C14.0812 9.84375 14.375 10.55 14.375 11.375C14.375 11.6625 14.3375 11.9344 14.2625 12.1906C14.1875 12.4469 14.0812 12.6875 13.9437 12.9125L16.25 15.2L15.2 16.25ZM3.125 14.375C2.3 14.375 1.59375 14.0812 1.00625 13.4937C0.41875 12.9062 0.125 12.2 0.125 11.375C0.125 10.55 0.41875 9.84375 1.00625 9.25625C1.59375 8.66875 2.3 8.375 3.125 8.375C3.95 8.375 4.65625 8.66875 5.24375 9.25625C5.83125 9.84375 6.125 10.55 6.125 11.375C6.125 12.2 5.83125 12.9062 5.24375 13.4937C4.65625 14.0812 3.95 14.375 3.125 14.375ZM11.375 12.875C11.7875 12.875 12.1406 12.7281 12.4344 12.4344C12.7281 12.1406 12.875 11.7875 12.875 11.375C12.875 10.9625 12.7281 10.6094 12.4344 10.3156C12.1406 10.0219 11.7875 9.875 11.375 9.875C10.9625 9.875 10.6094 10.0219 10.3156 10.3156C10.0219 10.6094 9.875 10.9625 9.875 11.375C9.875 11.7875 10.0219 12.1406 10.3156 12.4344C10.6094 12.7281 10.9625 12.875 11.375 12.875ZM3.125 6.125C2.3 6.125 1.59375 5.83125 1.00625 5.24375C0.41875 4.65625 0.125 3.95 0.125 3.125C0.125 2.3 0.41875 1.59375 1.00625 1.00625C1.59375 0.41875 2.3 0.125 3.125 0.125C3.95 0.125 4.65625 0.41875 5.24375 1.00625C5.83125 1.59375 6.125 2.3 6.125 3.125C6.125 3.95 5.83125 4.65625 5.24375 5.24375C4.65625 5.83125 3.95 6.125 3.125 6.125ZM11.375 6.125C10.55 6.125 9.84375 5.83125 9.25625 5.24375C8.66875 4.65625 8.375 3.95 8.375 3.125C8.375 2.3 8.66875 1.59375 9.25625 1.00625C9.84375 0.41875 10.55 0.125 11.375 0.125C12.2 0.125 12.9062 0.41875 13.4937 1.00625C14.0812 1.59375 14.375 2.3 14.375 3.125C14.375 3.95 14.0812 4.65625 13.4937 5.24375C12.9062 5.83125 12.2 6.125 11.375 6.125Z" fill="#009180"/>
</svg>
