<svg width="14" height="16" viewBox="0 0 14 16" fill="none" xmlns="http://www.w3.org/2000/svg">
<path d="M7.00415 9.80005C6.81401 9.80005 6.65332 9.73574 6.52207 9.60713C6.39082 9.47851 6.3252 9.31913 6.3252 9.12901C6.3252 8.93887 6.3895 8.77817 6.51811 8.64692C6.64674 8.51567 6.80611 8.45005 6.99624 8.45005C7.18638 8.45005 7.34707 8.51436 7.47832 8.64297C7.60957 8.77159 7.6752 8.93097 7.6752 9.12109C7.6752 9.31123 7.61089 9.47192 7.48228 9.60317C7.35365 9.73442 7.19428 9.80005 7.00415 9.80005ZM4.07915 9.80005C3.88901 9.80005 3.72832 9.73574 3.59707 9.60713C3.46582 9.47851 3.4002 9.31913 3.4002 9.12901C3.4002 8.93887 3.4645 8.77817 3.59311 8.64692C3.72174 8.51567 3.88111 8.45005 4.07124 8.45005C4.26138 8.45005 4.42207 8.51436 4.55332 8.64297C4.68457 8.77159 4.7502 8.93097 4.7502 9.12109C4.7502 9.31123 4.68589 9.47192 4.55728 9.60317C4.42865 9.73442 4.26928 9.80005 4.07915 9.80005ZM9.92915 9.80005C9.73901 9.80005 9.57832 9.73574 9.44707 9.60713C9.31582 9.47851 9.2502 9.31913 9.2502 9.12901C9.2502 8.93887 9.3145 8.77817 9.44311 8.64692C9.57174 8.51567 9.73111 8.45005 9.92124 8.45005C10.1114 8.45005 10.2721 8.51436 10.4033 8.64297C10.5346 8.77159 10.6002 8.93097 10.6002 9.12109C10.6002 9.31123 10.5359 9.47192 10.4073 9.60317C10.2787 9.73442 10.1193 9.80005 9.92915 9.80005ZM7.00415 12.5C6.81401 12.5 6.65332 12.4357 6.52207 12.3071C6.39082 12.1785 6.3252 12.0191 6.3252 11.829C6.3252 11.6389 6.3895 11.4782 6.51811 11.3469C6.64674 11.2157 6.80611 11.15 6.99624 11.15C7.18638 11.15 7.34707 11.2144 7.47832 11.343C7.60957 11.4716 7.6752 11.631 7.6752 11.8211C7.6752 12.0112 7.61089 12.1719 7.48228 12.3032C7.35365 12.4344 7.19428 12.5 7.00415 12.5ZM4.07915 12.5C3.88901 12.5 3.72832 12.4357 3.59707 12.3071C3.46582 12.1785 3.4002 12.0191 3.4002 11.829C3.4002 11.6389 3.4645 11.4782 3.59311 11.3469C3.72174 11.2157 3.88111 11.15 4.07124 11.15C4.26138 11.15 4.42207 11.2144 4.55332 11.343C4.68457 11.4716 4.7502 11.631 4.7502 11.8211C4.7502 12.0112 4.68589 12.1719 4.55728 12.3032C4.42865 12.4344 4.26928 12.5 4.07915 12.5ZM9.92915 12.5C9.73901 12.5 9.57832 12.4357 9.44707 12.3071C9.31582 12.1785 9.2502 12.0191 9.2502 11.829C9.2502 11.6389 9.3145 11.4782 9.44311 11.3469C9.57174 11.2157 9.73111 11.15 9.92124 11.15C10.1114 11.15 10.2721 11.2144 10.4033 11.343C10.5346 11.4716 10.6002 11.631 10.6002 11.8211C10.6002 12.0112 10.5359 12.1719 10.4073 12.3032C10.2787 12.4344 10.1193 12.5 9.92915 12.5ZM2.0502 15.2C1.67895 15.2 1.36113 15.0657 1.09676 14.7969C0.832383 14.5282 0.700195 14.2125 0.700195 13.85V3.95005C0.700195 3.58755 0.832383 3.27192 1.09676 3.00317C1.36113 2.73442 1.67895 2.60005 2.0502 2.60005H3.4002V0.800049H4.7502V2.60005H9.2502V0.800049H10.6002V2.60005H11.9502C12.3214 2.60005 12.6393 2.73442 12.9036 3.00317C13.168 3.27192 13.3002 3.58755 13.3002 3.95005V13.85C13.3002 14.2125 13.168 14.5282 12.9036 14.7969C12.6393 15.0657 12.3214 15.2 11.9502 15.2H2.0502ZM2.0502 13.85H11.9502V7.10005H2.0502V13.85Z" fill="#009180"/>
</svg>
