<svg width="234" height="168" viewBox="0 0 234 168" fill="none" xmlns="http://www.w3.org/2000/svg">
<path opacity="0.8" d="M2.5228 83.2625C6.22079 97.6305 14.0426 110.051 26.4033 116.072C52.0998 128.584 110.052 122.131 153.304 114.723C175.677 110.892 195.342 100.319 209.628 85.4392L2.5228 83.2625Z" fill="#D9D9D9"/>
<path opacity="0.8" d="M229.333 15.6299H205.601C204.475 15.6299 203.551 14.7909 203.551 13.7657C203.551 12.7405 204.475 11.8993 205.601 11.8993H209.706C208.578 11.8993 207.656 11.0603 207.656 10.0329C207.656 9.00559 208.578 8.16872 209.706 8.16872H206.777C205.648 8.16872 204.724 7.32971 204.724 6.30235C204.724 5.27499 205.648 4.43812 206.777 4.43812H219.163C216.414 3.27593 213.202 2.44976 209.499 2.01527C175.724 -1.92936 163.665 0.679706 159.412 3.36154C154.11 6.74593 148.22 9.09427 142.052 10.2834C121.214 14.1937 82.2433 18.8982 46.9218 8.78513C29.3665 3.74894 16.3181 12.2482 8.49846 26.4557H233.455C233.161 22.327 232.281 18.5129 230.668 15.1762C230.286 15.4728 229.816 15.6325 229.333 15.6299Z" fill="#D9D9D9"/>
<path opacity="0.8" d="M0.51072 53.2705C-0.400802 61.6267 -0.0909487 70.0721 1.43043 78.338L209.787 85.2706C215.522 79.2902 220.396 72.5309 224.264 65.19L0.51072 53.2705ZM82.9183 71.153H78.8158C79.9442 71.153 80.8681 71.9941 80.8681 73.0193C80.8681 74.0445 79.9442 74.8836 78.8158 74.8836H55.0844C53.9581 74.8836 53.0342 74.0445 53.0342 73.0193C53.0342 71.9941 53.9581 71.153 55.0844 71.153H59.189C58.0606 71.153 57.1388 70.314 57.1388 69.2887C57.1388 68.2635 58.0606 67.4224 59.189 67.4224H56.2574C55.1291 67.4224 54.2051 66.5834 54.2051 65.5581C54.2051 64.5329 55.1291 63.6918 56.2574 63.6918H79.9889C81.1172 63.6918 82.039 64.5308 82.039 65.5581C82.039 66.5855 81.1172 67.4224 79.9889 67.4224H82.9183C84.0467 67.4224 84.9685 68.2614 84.9685 69.2887C84.9685 70.3161 84.0467 71.153 82.9183 71.153Z" fill="#D9D9D9"/>
<path opacity="0.8" d="M233.463 26.5836L5.98859 31.6134C3.22095 38.0836 1.38579 45.3993 0.540596 52.9803H229.478C230.968 48.5449 232.073 43.9883 232.782 39.3614C233.465 34.9074 233.738 30.5989 233.463 26.5836ZM46.7261 43.0749H42.6237C43.752 43.0749 44.676 43.916 44.676 44.9412C44.676 45.9664 43.752 46.8076 42.6237 46.8076H18.8922C17.766 46.8076 16.842 45.9664 16.842 44.9412C16.842 43.916 17.766 43.0749 18.8922 43.0749H22.9968C21.8685 43.0749 20.9466 42.2358 20.9466 41.2106C20.9466 40.1854 21.8685 39.3443 22.9968 39.3443H20.0652C18.9369 39.3443 18.0129 38.5053 18.0129 37.48C18.0129 36.4548 18.9369 35.6137 20.0652 35.6137H43.7967C44.9251 35.6137 45.8469 36.4527 45.8469 37.48C45.8469 38.5074 44.9251 39.3443 43.7967 39.3443H46.7261C47.8545 39.3443 48.7763 40.1854 48.7763 41.2106C48.7763 42.2358 47.8545 43.0749 46.7261 43.0749Z" fill="#D9D9D9"/>
<path opacity="0.8" d="M116.047 167.176C168.602 167.176 211.207 163.235 211.207 158.375C211.207 153.514 168.602 149.574 116.047 149.574C63.4914 149.574 20.8868 153.514 20.8868 158.375C20.8868 163.235 63.4914 167.176 116.047 167.176Z" fill="#D9D9D9"/>
<path d="M172.947 91.9986C174.005 91.9986 174.863 91.4142 174.863 90.6932C174.863 89.9722 174.005 89.3877 172.947 89.3877C171.889 89.3877 171.031 89.9722 171.031 90.6932C171.031 91.4142 171.889 91.9986 172.947 91.9986Z" fill="#AEB7E5"/>
<path d="M110.493 163.368C146.766 163.368 176.171 133.806 176.171 97.3387C176.171 60.8718 146.766 31.3096 110.493 31.3096C74.2194 31.3096 44.8142 60.8718 44.8142 97.3387C44.8142 133.806 74.2194 163.368 110.493 163.368Z" fill="#009180"/>
<path opacity="0.5" d="M144.954 130.52C144.954 140.943 128.654 131.41 111.18 131.41C93.7055 131.41 76.0309 140.55 76.0309 130.126C76.0309 124.183 81.6641 115.917 89.7456 109.913C95.8344 105.388 103.311 102.148 110.822 102.148C118.546 102.148 126.112 105.656 132.148 110.472C139.765 116.544 144.954 124.703 144.954 130.52Z" fill="#090500"/>
<path d="M132.146 110.467C122.858 109.061 106.058 107.347 89.7459 109.909C95.8347 105.384 103.312 102.144 110.823 102.144C118.544 102.144 126.111 105.652 132.146 110.467Z" fill="#F6F8FB"/>
<path opacity="0.1" d="M76.0312 50.7288C76.0312 50.7288 56.2468 63.4445 56.4086 83.3345C56.5704 103.225 76.0312 50.7288 76.0312 50.7288Z" fill="#090500"/>
<path opacity="0.5" d="M87.1422 88.681C88.3919 88.6103 94.2742 88.1651 98.0105 86.0227C98.6106 85.6678 99.2884 85.4671 99.984 85.4384C101.172 85.4041 102.539 85.9028 101.664 88.6938C100.246 93.2591 92.0132 98.3959 86.9037 98.1113C81.9901 97.8373 76.161 95.8468 72.3119 88.8479C71.9431 88.1746 71.7614 87.4138 71.786 86.6455C71.8307 85.2329 72.3417 83.4628 74.9795 85.4362C78.5433 88.1009 85.3049 88.606 86.661 88.681C86.8213 88.6896 86.9819 88.6896 87.1422 88.681Z" fill="#090500"/>
<path opacity="0.5" d="M134.405 88.681C135.655 88.6103 141.537 88.1651 145.273 86.0227C145.873 85.6678 146.551 85.4671 147.247 85.4384C148.435 85.4041 149.802 85.9028 148.927 88.6938C147.509 93.2591 139.276 98.3959 134.167 98.1113C129.253 97.8373 123.424 95.8468 119.575 88.8479C119.206 88.1746 119.024 87.4138 119.049 86.6455C119.094 85.2329 119.605 83.4628 122.242 85.4362C125.806 88.1009 132.568 88.606 133.924 88.681C134.084 88.6896 134.245 88.6896 134.405 88.681Z" fill="#090500"/>
</svg>
