<svg width="199" height="202" viewBox="0 0 199 202" fill="none" xmlns="http://www.w3.org/2000/svg">
<path d="M192.653 85.8776H6.3466C4.68656 85.8757 3.09506 85.2129 1.92124 84.0345C0.747415 82.8562 0.0871219 81.2586 0.0852051 79.5922V6.2854C0.0871219 4.619 0.747415 3.0214 1.92124 1.84307C3.09506 0.664749 4.68656 0.00192416 6.3466 0H192.653C194.313 0.00192416 195.905 0.664749 197.079 1.84307C198.253 3.0214 198.913 4.619 198.915 6.2854V79.5922C198.913 81.2586 198.253 82.8562 197.079 84.0345C195.905 85.2129 194.313 85.8757 192.653 85.8776Z" fill="#F2F2F2"/>
<path d="M149.203 81.8686H35.9202C27.4785 81.8591 19.3853 78.4886 13.4162 72.4965C7.44701 66.5045 4.08936 58.3803 4.07983 49.9062V35.9744C4.08935 27.5003 7.44699 19.3761 13.4161 13.384C19.3853 7.39191 27.4785 4.02133 35.9202 4.01172H163.081C171.523 4.02133 179.616 7.39191 185.585 13.384C191.554 19.3761 194.912 27.5003 194.922 35.9744C194.908 48.1421 190.087 59.8075 181.516 68.4113C172.945 77.0152 161.324 81.8549 149.203 81.8686Z" fill="white"/>
<path d="M119.98 24.9969H45.0992C44.6709 24.9969 44.2602 24.8261 43.9573 24.5221C43.6545 24.2181 43.4844 23.8058 43.4844 23.3759C43.4844 22.946 43.6545 22.5337 43.9573 22.2297C44.2602 21.9257 44.6709 21.7549 45.0992 21.7549H119.98C120.409 21.7549 120.819 21.9257 121.122 22.2297C121.425 22.5337 121.595 22.946 121.595 23.3759C121.595 23.8058 121.425 24.2181 121.122 24.5221C120.819 24.8261 120.409 24.9969 119.98 24.9969Z" fill="#D9D9D9"/>
<path d="M157.886 42.2928H45.0992C44.6709 42.2928 44.2602 42.122 43.9573 41.818C43.6545 41.514 43.4844 41.1017 43.4844 40.6718C43.4844 40.2419 43.6545 39.8296 43.9573 39.5256C44.2602 39.2216 44.6709 39.0508 45.0992 39.0508H157.886C158.315 39.0508 158.725 39.2216 159.028 39.5256C159.331 39.8296 159.501 40.2419 159.501 40.6718C159.501 41.1017 159.331 41.514 159.028 41.818C158.725 42.122 158.315 42.2928 157.886 42.2928Z" fill="#D9D9D9"/>
<path d="M157.886 59.5877H45.0992C44.6709 59.5877 44.2602 59.4169 43.9573 59.1129C43.6545 58.8089 43.4844 58.3966 43.4844 57.9667C43.4844 57.5368 43.6545 57.1245 43.9573 56.8205C44.2602 56.5165 44.6709 56.3457 45.0992 56.3457H157.886C158.315 56.3457 158.725 56.5165 159.028 56.8205C159.331 57.1245 159.501 57.5368 159.501 57.9667C159.501 58.3966 159.331 58.8089 159.028 59.1129C158.725 59.4169 158.315 59.5877 157.886 59.5877Z" fill="#E6E6E6"/>
<path d="M157.886 59.5877H45.0992C44.6709 59.5877 44.2602 59.4169 43.9573 59.1129C43.6545 58.8089 43.4844 58.3966 43.4844 57.9667C43.4844 57.5368 43.6545 57.1245 43.9573 56.8205C44.2602 56.5165 44.6709 56.3457 45.0992 56.3457H157.886C158.315 56.3457 158.725 56.5165 159.028 56.8205C159.331 57.1245 159.501 57.5368 159.501 57.9667C159.501 58.3966 159.331 58.8089 159.028 59.1129C158.725 59.4169 158.315 59.5877 157.886 59.5877Z" fill="#D9D9D9"/>
<path d="M106.962 43.0139C106.977 43.4236 107.082 43.825 107.268 44.1898C107.454 44.5546 107.718 44.874 108.041 45.1254C108.363 45.3769 108.737 45.5542 109.135 45.6451C109.533 45.7359 109.947 45.7379 110.346 45.6511L115.513 54.1602L117.712 49.4758L112.468 42.1136C112.278 41.4502 111.853 40.8797 111.272 40.5102C110.691 40.1407 109.995 39.998 109.317 40.109C108.638 40.2199 108.024 40.577 107.59 41.1124C107.156 41.6478 106.933 42.3243 106.962 43.0139Z" fill="#FFB6B6"/>
<path d="M145.737 67.4005L127.931 57.7048L122.314 52.4151C122.314 52.4151 119.873 51.7588 120.771 50.9619C121.67 50.1649 119.109 49.3963 119.109 49.3963L116.094 46.5566L111.809 49.5998L113.049 51.5292C113.049 51.5292 112.964 54.7234 114.707 54.1089C116.45 53.4944 116.015 56.1435 116.015 56.1435L126.419 72.3335L145.737 67.4005Z" fill="#009180"/>
<path d="M95.6454 62.4547C107.094 62.4547 116.375 53.1382 116.375 41.6458C116.375 30.1534 107.094 20.8369 95.6454 20.8369C84.1969 20.8369 74.916 30.1534 74.916 41.6458C74.916 53.1382 84.1969 62.4547 95.6454 62.4547Z" fill="#00675B"/>
<path d="M145.793 194.572H142.176L140.455 180.569H145.793V194.572Z" fill="#FFB6B6"/>
<path d="M147.702 200.862H145.108L144.645 198.404L143.46 200.862H136.581C136.251 200.862 135.93 200.756 135.665 200.56C135.399 200.364 135.203 200.088 135.105 199.772C135.007 199.456 135.012 199.116 135.119 198.803C135.227 198.491 135.431 198.22 135.702 198.032L141.195 194.224V191.739L146.973 192.085L147.702 200.862Z" fill="#090500"/>
<path d="M116.868 194.572H113.252L111.531 180.569H116.868V194.572Z" fill="#FFB6B6"/>
<path d="M118.777 200.862H116.184L115.721 198.404L114.535 200.862H107.657C107.327 200.862 107.006 200.756 106.741 200.56C106.475 200.364 106.279 200.088 106.181 199.772C106.083 199.456 106.088 199.116 106.195 198.803C106.303 198.491 106.507 198.22 106.778 198.032L112.271 194.224V191.739L118.049 192.085L118.777 200.862Z" fill="#090500"/>
<path d="M141.955 88.6729H123.702V109.533H141.955V88.6729Z" fill="#FFB6B6"/>
<path d="M124.124 98.9609L121.035 102.626L115.699 113.901L102.255 146.012L99.4119 152.803L101.708 164.807C101.708 164.807 102.08 173.265 102.08 174.649C102.08 177.468 104.428 179.03 104.428 179.03L106.151 188.039L122.86 187.335C122.86 187.335 122.277 177.404 118.778 174.899C115.278 172.394 113.669 159.339 113.669 159.339L111.768 153.547L130.302 131.493L130.421 139.202L130.479 142.934C130.479 142.934 127.765 167.203 130.929 171.913C134.093 176.623 130.993 176.069 130.993 176.069L131.144 185.784L150.942 185.925L146.574 157.953C146.574 157.953 144.356 156.196 145.543 154.429C146.729 152.662 144.393 150.498 144.393 150.498L145.441 128.661C145.441 128.661 144.281 124.889 145.645 124.399C147.01 123.909 145.825 120.665 145.825 120.665L146.027 116.438L141.956 103.33L124.124 98.9609Z" fill="#090500"/>
<path d="M142.236 88.6724L144.202 82.7526L145.606 80.7793L146.168 75.1415C146.168 59.9192 142.785 62.454 142.785 62.454L140.832 57.1003L131.846 56.8184L126.089 62.3153L121.315 64.0067L119.446 73.7574L122.86 84.1621L123.702 89.7999C122.095 92.7781 122.231 91.3694 123.562 93.6055L139.428 97.9748C145.044 99.9481 145.044 94.874 143.918 93.6055C142.792 92.337 142.236 88.6724 142.236 88.6724Z" fill="#009180"/>
<path d="M135.178 54.926C139.779 54.926 143.509 51.182 143.509 46.5636C143.509 41.9452 139.779 38.2012 135.178 38.2012C130.578 38.2012 126.848 41.9452 126.848 46.5636C126.848 51.182 130.578 54.926 135.178 54.926Z" fill="#FFB6B6"/>
<path d="M146.3 57.7265C146.378 57.8594 146.426 58.0085 146.439 58.1624C146.452 58.3164 146.431 58.4713 146.376 58.6158C146.321 58.7602 146.234 58.8903 146.123 58.9965C146.011 59.1027 145.876 59.1821 145.73 59.229C144.612 59.6011 143.924 60.6864 143.121 61.5546C142.321 62.42 141.032 63.1389 140.01 62.5497C138.99 61.9634 138.92 60.4665 138.066 59.6547C137.235 58.8654 135.853 58.9612 134.876 59.5616L134.847 59.5797C134.678 59.6901 134.481 59.7484 134.28 59.7475C134.078 59.7466 133.882 59.6864 133.714 59.5745C133.546 59.4626 133.415 59.3038 133.336 59.1177C133.258 58.9316 133.235 58.7265 133.271 58.5277C133.613 56.6997 133.956 54.8718 134.298 53.0442C133.399 55.2178 132.094 57.1985 130.453 58.8794C130.001 59.403 129.429 59.8075 128.785 60.0578C128.201 60.2438 127.634 59.6377 127.067 59.7477C128.476 58.5102 133.217 50.5777 132.368 45.2752C131.372 45.388 130.375 45.5008 129.378 45.6135C129.27 45.1399 129.039 44.7033 128.709 44.3478C128.75 44.8087 128.691 45.273 128.538 45.7094C128.123 45.7573 127.704 45.8024 127.289 45.8503C126.71 45.9152 126.081 45.9715 125.584 45.6671C124.756 45.1597 124.73 43.9588 124.966 43.0116C125.657 40.2575 127.752 37.9545 130.316 36.748C132.88 35.5443 133.638 38.2251 136.339 37.3681C141.675 35.6768 145.763 38.569 147.204 43.9363C148.414 48.4381 147.535 53.2162 146.3 57.7265Z" fill="#2F2E41"/>
<path d="M179.601 201.266L82.6693 201.361C82.5726 201.36 82.48 201.321 82.4117 201.253C82.3435 201.184 82.3052 201.091 82.3052 200.993C82.3052 200.896 82.3435 200.803 82.4117 200.734C82.48 200.665 82.5726 200.627 82.6693 200.626L179.601 200.531C179.697 200.532 179.79 200.571 179.858 200.639C179.926 200.708 179.965 200.802 179.965 200.899C179.965 200.996 179.926 201.089 179.858 201.158C179.79 201.227 179.697 201.266 179.601 201.266Z" fill="#D2D2D2"/>
<path d="M91.5934 64.3064L80.9313 55.2678C80.5669 54.9582 80.3397 54.5161 80.2996 54.0385C80.2595 53.5609 80.4097 53.0868 80.7174 52.7203L82.6798 50.3877C82.9882 50.0218 83.4287 49.7937 83.9044 49.7535C84.3802 49.7132 84.8524 49.864 85.2176 50.1729L95.8796 59.2114C96.2441 59.5211 96.4713 59.9632 96.5114 60.4408C96.5515 60.9184 96.4012 61.3925 96.0936 61.759L94.1312 64.0916C93.8227 64.4575 93.3823 64.6855 92.9065 64.7258C92.4308 64.7661 91.9585 64.6152 91.5934 64.3064Z" fill="#3F3D56"/>
<path d="M81.4908 52.9073C81.325 53.1048 81.244 53.3603 81.2656 53.6176C81.2873 53.875 81.4097 54.1133 81.6061 54.2801L92.2681 63.3187C92.4649 63.4851 92.7194 63.5664 92.9757 63.5447C93.2321 63.523 93.4695 63.4001 93.6357 63.2029L95.5981 60.8703C95.7638 60.6728 95.8448 60.4173 95.8232 60.16C95.8016 59.9026 95.6791 59.6643 95.4828 59.4975L84.8207 50.4589C84.624 50.2925 84.3695 50.2112 84.1131 50.2329C83.8567 50.2546 83.6194 50.3775 83.4531 50.5747L81.4908 52.9073Z" fill="white"/>
<path d="M87.75 56.4218C87.713 56.4737 87.6644 56.5163 87.6082 56.5462C87.5519 56.5761 87.4895 56.5924 87.4259 56.5938L85.7506 56.6325C85.6968 56.6337 85.6433 56.6243 85.5931 56.6048C85.5429 56.5852 85.497 56.556 85.4581 56.5186C85.4192 56.4813 85.3879 56.4367 85.3662 56.3872C85.3445 56.3378 85.3326 56.2845 85.3314 56.2305C85.3302 56.1765 85.3395 56.1227 85.359 56.0724C85.3785 56.022 85.4076 55.9759 85.4448 55.9368C85.482 55.8978 85.5265 55.8664 85.5757 55.8446C85.625 55.8228 85.678 55.8109 85.7318 55.8097L86.8278 55.7844L85.7485 52.9256C85.7102 52.8236 85.7139 52.7105 85.7586 52.6112C85.8033 52.5119 85.8854 52.4345 85.9869 52.3958C86.0884 52.3572 86.201 52.3606 86.3 52.4052C86.3991 52.4498 86.4764 52.5321 86.5151 52.6339L87.7998 56.0366C87.823 56.0982 87.8312 56.1644 87.8237 56.2298C87.8162 56.2952 87.7931 56.3578 87.7565 56.4124L87.75 56.4218Z" fill="#00675B"/>
<path d="M89.4367 61.1131C89.9182 61.1841 90.3784 61.3602 90.7849 61.6291C91.1913 61.898 91.5341 62.253 91.789 62.6692C92.044 63.0854 92.2049 63.5527 92.2605 64.0381C92.3161 64.5235 92.265 65.0153 92.1107 65.4787L101.484 72.7267L95.6702 74.735L87.6605 67.5443C86.9022 67.2327 86.284 66.6526 85.9232 65.914C85.5624 65.1754 85.484 64.3296 85.703 63.5368C85.9219 62.7441 86.4229 62.0595 87.111 61.6128C87.7992 61.1661 88.6267 60.9883 89.4367 61.1131Z" fill="#FFB6B6"/>
<path d="M128.909 60.1465L108.774 72.5741C108.774 72.5741 100.655 69.5588 102.242 68.1629C103.828 66.767 98.7776 65.8233 98.7776 65.8233L93.1978 62.0549L89.96 65.8323C89.96 65.8323 90.5499 71.9678 91.5537 70.9054C92.5575 69.8431 94.058 72.7452 94.058 72.7452C94.058 72.7452 94.5014 75.9857 97.3589 75.1703C100.216 74.3548 107.884 82.9026 107.884 82.9026L132.665 73.6249L128.909 60.1465Z" fill="#009180"/>
<path d="M94.9164 49.9935C94.6382 49.9935 94.3638 49.9285 94.115 49.8036C93.8662 49.6786 93.6497 49.4973 93.4829 49.2738L89.0876 43.3909C88.9464 43.2019 88.8437 42.9868 88.7853 42.758C88.7269 42.5291 88.714 42.291 88.7473 42.0571C88.7806 41.8233 88.8594 41.5983 88.9793 41.395C89.0992 41.1917 89.2578 41.0141 89.4461 40.8724C89.8263 40.5862 90.3043 40.4633 90.7748 40.5307C91.0078 40.5642 91.2319 40.6433 91.4344 40.7637C91.6369 40.8841 91.8138 41.0433 91.955 41.2323L94.8305 45.0807L102.216 33.9603C102.48 33.5633 102.89 33.2877 103.356 33.1941C103.822 33.1006 104.306 33.1967 104.701 33.4613C105.097 33.726 105.371 34.1375 105.464 34.6054C105.558 35.0732 105.462 35.5591 105.198 35.9561L96.4077 49.1924C96.2487 49.4318 96.0348 49.6294 95.784 49.7687C95.5332 49.908 95.2528 49.9849 94.9663 49.993C94.9497 49.9933 94.933 49.9935 94.9164 49.9935Z" fill="white"/>
</svg>
