<svg width="327" height="250" viewBox="0 0 327 339" fill="none" xmlns="http://www.w3.org/2000/svg">
<g opacity="0.65" clip-path="url(#clip0_86_1439)">
<path d="M183.029 1.20986C200.709 -0.502272 218.845 -1.07299 235.976 3.69816C253.107 8.46931 269.371 18.7421 277.754 34.4024C289.585 56.5004 283.989 83.9631 291.458 107.864C297.123 125.785 309.732 140.6 317.703 157.653C323.544 170.554 326.677 184.515 326.909 198.674C327.141 212.832 324.466 226.888 319.051 239.973C307.811 266.272 286.593 287.043 260.051 297.729C234.743 307.865 206.762 308.184 179.558 309.919C154.934 311.472 130.265 314.325 105.642 312.567C81.0191 310.81 56.1674 304.121 36.8663 288.643C17.5651 273.165 5.32206 247.78 9.98174 223.559C17.3596 185.184 62.5174 161.169 65.601 122.224C66.5266 109.809 62.8971 97.482 55.3908 87.5471C47.145 76.7493 26.6789 61.8194 35.6557 45.5884C40.7493 36.457 59.1825 34.1742 68.2734 30.3162C104.837 14.8817 143.527 5.06838 183.029 1.20986Z" fill="#FDECE5" fill-opacity="0.67"/>
<path d="M20.4888 106.54C14.4815 107.864 10.6441 113.686 8.06304 119.256C2.3426 131.622 -0.40306 145.155 0.0456373 158.772C0.182687 162.425 0.822256 166.602 3.90587 168.588C7.7661 171.077 12.8826 168.588 16.4916 165.735C25.6282 158.589 34.7648 147.7 37.4145 136.195C39.8357 125.42 36.5922 102.979 20.4888 106.54Z" fill="#FDECE5" fill-opacity="0.67"/>
<path d="M42.4625 14.6103C42.4625 15.9648 42.0606 17.2889 41.3077 18.4151C40.5547 19.5414 39.4845 20.4191 38.2324 20.9375C36.9802 21.4558 35.6024 21.5915 34.2732 21.3272C32.9439 21.063 31.7229 20.4107 30.7646 19.4529C29.8063 18.4951 29.1536 17.2749 28.8892 15.9464C28.6248 14.6179 28.7605 13.2409 29.2792 11.9895C29.7978 10.7381 30.6761 9.66845 31.803 8.91593C32.9299 8.1634 34.2547 7.76172 35.61 7.76172C37.4274 7.76172 39.1704 8.48325 40.4555 9.7676C41.7406 11.052 42.4625 12.7939 42.4625 14.6103Z" fill="#FDECE5" fill-opacity="0.67"/>
<path d="M289.723 315.147C289.723 316.7 289.262 318.219 288.398 319.51C287.535 320.801 286.308 321.808 284.872 322.402C283.436 322.997 281.856 323.152 280.332 322.849C278.808 322.546 277.408 321.798 276.309 320.7C275.21 319.602 274.462 318.202 274.159 316.679C273.855 315.156 274.011 313.577 274.606 312.142C275.2 310.707 276.208 309.48 277.5 308.618C278.792 307.755 280.311 307.294 281.865 307.294C282.898 307.291 283.921 307.492 284.876 307.886C285.83 308.279 286.698 308.858 287.428 309.587C288.158 310.317 288.737 311.184 289.131 312.138C289.524 313.092 289.726 314.115 289.723 315.147Z" fill="#FDECE5" fill-opacity="0.67"/>
</g>
<path d="M248.75 104.416H88.7009C85.9331 104.416 83.6893 106.67 83.6893 109.451V259.08C83.6893 261.861 85.9331 264.115 88.7009 264.115H248.75C251.518 264.115 253.761 261.861 253.761 259.08V109.451C253.761 106.67 251.518 104.416 248.75 104.416Z" fill="#FFE5DB" stroke="black" stroke-miterlimit="10"/>
<path d="M212.162 187.497C219.142 187.497 225.837 190.283 230.772 195.241C235.708 200.2 238.481 206.925 238.481 213.938V264.115H185.833V213.938C185.833 206.925 188.606 200.2 193.542 195.241C198.477 190.283 205.171 187.497 212.152 187.497H212.162Z" fill="#F8A97E" stroke="black" stroke-miterlimit="10"/>
<path d="M230.381 233.745C232.618 233.745 234.431 231.923 234.431 229.676C234.431 227.429 232.618 225.608 230.381 225.608C228.145 225.608 226.331 227.429 226.331 229.676C226.331 231.923 228.145 233.745 230.381 233.745Z" fill="black"/>
<path d="M168.736 140.508C166.371 140.512 164.028 140.048 161.842 139.142C159.656 138.236 157.669 136.906 155.995 135.228C154.321 133.55 152.992 131.557 152.085 129.363C151.178 127.169 150.711 124.816 150.709 122.44V122.204L151.575 42.6764H185.876L186.752 122.204C186.789 126.998 184.932 131.611 181.589 135.032C178.246 138.454 173.689 140.403 168.917 140.454L168.736 140.508Z" fill="#F8A97F" stroke="black" stroke-miterlimit="10"/>
<path d="M204.779 140.508C202.411 140.507 200.067 140.037 197.881 139.125C195.694 138.214 193.708 136.879 192.035 135.196C190.362 133.513 189.035 131.516 188.131 129.318C187.226 127.12 186.761 124.765 186.763 122.387V122.258L185.886 42.7301H218.734L222.613 104.469L222.805 122.258C222.824 124.636 222.375 126.995 221.486 129.199C220.597 131.403 219.285 133.41 217.624 135.105C215.963 136.8 213.986 138.149 211.806 139.076C209.625 140.003 207.285 140.49 204.918 140.508H204.779Z" fill="#FCD9C6" stroke="black" stroke-miterlimit="10"/>
<path d="M240.842 140.508C236.062 140.508 231.476 138.6 228.096 135.204C224.715 131.807 222.816 127.201 222.816 122.397V122.258L218.745 42.7301H249.444L258.634 104.416L258.826 122.204C258.863 126.998 257.007 131.611 253.664 135.033C250.321 138.454 245.764 140.403 240.992 140.454L240.842 140.508Z" fill="#F8A97F" stroke="black" stroke-miterlimit="10"/>
<path d="M132.694 140.508C137.472 140.508 142.054 138.601 145.433 135.207C148.811 131.812 150.709 127.208 150.709 122.408V122.204L151.586 42.6764H118.738L114.859 104.416L114.667 122.204C114.63 126.998 116.486 131.611 119.83 135.032C123.173 138.454 127.729 140.403 132.501 140.454L132.694 140.508Z" fill="#FCD9C6" stroke="black" stroke-miterlimit="10"/>
<path d="M96.6083 140.508C101.386 140.508 105.969 138.601 109.348 135.207C112.726 131.812 114.624 127.209 114.624 122.408V122.258L118.706 42.7301H87.9957L78.7741 104.416L78.5817 122.204C78.5447 126.998 80.4012 131.611 83.7443 135.033C87.0874 138.454 91.6443 140.403 96.416 140.454L96.6083 140.508Z" fill="#F8A97F" stroke="black" stroke-miterlimit="10"/>
<path d="M258.965 104.416H78.8809" stroke="black" stroke-miterlimit="10"/>
<path d="M123.995 186.831C118.161 180.97 108.042 177.223 104.099 181.195C100.156 185.167 103.874 195.323 109.719 201.184C113.823 205.318 117.894 206.209 121.313 204.985C122.169 204.738 123.076 204.741 123.93 204.994C124.783 205.247 125.547 205.739 126.132 206.413L154.118 236.708C155.721 238.436 158.253 238.855 159.771 237.534C161.288 236.214 161.192 233.369 159.354 231.651L129.146 203.428C128.465 202.836 127.969 202.059 127.717 201.191C127.465 200.323 127.468 199.4 127.725 198.533C128.943 195.044 128.056 190.964 123.995 186.831Z" fill="#ED5044"/>
<path d="M104.43 236.944C104.255 236.756 104.121 236.535 104.035 236.293C103.948 236.051 103.912 235.794 103.928 235.538C104.022 234.332 104.582 233.211 105.488 232.414L134.339 205.275C136.081 203.687 137.253 201.566 137.673 199.241L137.887 197.416C138.238 195.486 139.21 193.725 140.654 192.403L155.229 178.447C155.582 178.114 156.02 178.028 156.17 178.179C156.319 178.329 156.244 178.812 155.892 179.166L142 193.068C141.743 193.232 141.56 193.492 141.493 193.791C141.426 194.09 141.48 194.404 141.643 194.663C141.805 194.922 142.064 195.105 142.362 195.173C142.659 195.24 142.971 195.186 143.229 195.022C143.376 194.929 143.5 194.804 143.593 194.657L157.484 180.701C157.847 180.347 158.296 180.25 158.456 180.411C158.617 180.572 158.456 181.023 158.157 181.378L144.266 195.334C144.137 195.412 144.026 195.515 143.937 195.636C143.848 195.758 143.784 195.896 143.748 196.043C143.712 196.189 143.706 196.341 143.729 196.491C143.751 196.64 143.803 196.783 143.881 196.912C143.959 197.041 144.061 197.153 144.183 197.242C144.304 197.332 144.441 197.396 144.587 197.432C144.733 197.468 144.884 197.474 145.033 197.451C145.181 197.429 145.324 197.376 145.452 197.298C145.611 197.205 145.744 197.072 145.837 196.912L159.696 183.031C160.048 182.677 160.508 182.58 160.668 182.73C160.828 182.881 160.722 183.353 160.369 183.707L146.478 197.663C146.348 197.741 146.236 197.843 146.146 197.964C146.056 198.085 145.991 198.223 145.954 198.37C145.917 198.516 145.91 198.669 145.932 198.818C145.954 198.968 146.005 199.112 146.082 199.241C146.24 199.502 146.493 199.689 146.787 199.763C147.081 199.838 147.392 199.793 147.653 199.639C147.848 199.517 148.004 199.342 148.102 199.134L161.993 185.178C162.346 184.824 162.805 184.727 162.955 184.877C163.105 185.028 163.051 185.489 162.709 185.844L148.818 200.487C147.506 201.944 145.752 202.925 143.828 203.278L142.022 203.525C139.704 203.942 137.59 205.125 136.017 206.885L108.95 235.87C108.155 236.788 107.036 237.358 105.83 237.459C105.574 237.471 105.319 237.431 105.078 237.343C104.838 237.254 104.618 237.119 104.43 236.944Z" fill="#ED5044"/>
<path d="M249.444 63.3527C260.811 63.3527 270.025 54.0956 270.025 42.6764C270.025 31.2571 260.811 22 249.444 22C238.078 22 228.864 31.2571 228.864 42.6764C228.864 54.0956 238.078 63.3527 249.444 63.3527Z" fill="#79E252"/>
<path d="M211.97 290.17C211.97 290.707 211.564 290.288 211.553 290.997C211.561 290.475 211.705 289.964 211.97 289.515V292.532C211.97 297.685 211.799 307.003 211.671 307.83H166.054L165.979 290.277L156.608 272.263C154.349 267.917 153.245 263.058 153.402 258.157V257.384C153.402 253.026 163.778 247.84 163.778 243.332V211.158C163.781 210.079 163.995 209.012 164.408 208.016C164.822 207.021 165.426 206.117 166.187 205.357C166.948 204.596 167.851 203.994 168.844 203.583C169.837 203.173 170.9 202.964 171.974 202.967C173.064 202.964 174.144 203.183 175.149 203.61C176.153 204.037 177.062 204.663 177.82 205.451C178.578 206.238 179.17 207.172 179.561 208.195C179.952 209.218 180.134 210.309 180.095 211.405V234.121C180.652 233.551 181.318 233.1 182.052 232.794C182.786 232.488 183.574 232.333 184.369 232.339H185.32C186.9 232.344 188.413 232.977 189.53 234.099C190.647 235.221 191.277 236.742 191.283 238.329C191.285 236.743 191.913 235.222 193.028 234.1C194.144 232.977 195.656 232.344 197.234 232.339H198.185C199.767 232.341 201.283 232.973 202.402 234.096C203.522 235.218 204.153 236.74 204.159 238.329C204.162 236.743 204.789 235.222 205.904 234.1C207.02 232.977 208.532 232.344 210.111 232.339H211.062C212.64 232.341 214.154 232.972 215.271 234.092C216.388 235.213 217.019 236.732 217.024 238.318V283.192C217.035 284.147 216.809 285.089 216.367 285.934C215.925 286.78 215.281 287.501 214.492 288.034C214.349 288.15 214.195 288.251 214.032 288.334C213.639 288.571 213.219 288.762 212.782 288.903L212.258 289.043C212.552 288.711 212.918 288.45 213.327 288.281C212.878 288.485 212.75 289.247 212.258 289.354" fill="#F7E6C4"/>
<path d="M212.9 289.537C213.028 289.331 213.231 289.185 213.466 289.129C213.848 288.997 214.208 288.809 214.535 288.57C214.66 288.494 214.781 288.412 214.898 288.324L215.176 288.098C215.892 287.498 216.47 286.749 216.869 285.901C217.268 285.054 217.477 284.129 217.484 283.192V238.318C217.47 236.619 216.788 234.995 215.587 233.798C214.386 232.602 212.764 231.931 211.072 231.931H210.121C208.827 231.94 207.565 232.343 206.503 233.086C205.44 233.83 204.627 234.879 204.169 236.096C203.711 234.876 202.894 233.824 201.827 233.08C200.761 232.336 199.495 231.936 198.196 231.931H197.245C195.951 231.94 194.689 232.343 193.627 233.086C192.564 233.83 191.751 234.879 191.293 236.096C190.835 234.877 190.02 233.827 188.956 233.083C187.891 232.34 186.627 231.938 185.331 231.931H184.38C182.978 231.927 181.616 232.396 180.512 233.262V211.404C180.534 209.327 179.822 207.31 178.504 205.71C177.185 204.11 175.345 203.031 173.309 202.666C171.075 202.31 168.792 202.858 166.959 204.19C165.127 205.522 163.894 207.53 163.532 209.773C163.459 210.231 163.423 210.694 163.425 211.158V243.299C163.425 245.446 160.818 247.808 158.296 250.149C155.593 252.65 153.039 255.012 153.039 257.341V258.114C152.867 263.078 153.971 268.003 156.245 272.414L165.573 290.385L165.669 308.195H212.002V307.862C212.13 307.035 212.248 298.297 212.301 293.036V292.102C212.301 291.233 212.152 289.955 212.857 289.537H212.9ZM191.699 238.329C191.702 236.848 192.288 235.429 193.329 234.381C194.37 233.333 195.782 232.741 197.256 232.736H198.207C199.683 232.736 201.099 233.325 202.144 234.374C203.188 235.423 203.774 236.845 203.774 238.329H204.576C204.578 236.848 205.164 235.429 206.205 234.381C207.247 233.333 208.658 232.741 210.132 232.736H211.083C211.811 232.734 212.533 232.877 213.206 233.156C213.88 233.434 214.492 233.844 215.008 234.36C215.524 234.876 215.933 235.49 216.213 236.165C216.493 236.841 216.638 237.565 216.64 238.297V283.192C216.632 284.263 216.321 285.31 215.742 286.21C215.162 287.11 214.34 287.824 213.37 288.27C212.961 288.439 212.595 288.7 212.301 289.032C212.163 289.172 212.044 289.331 211.949 289.504C211.684 289.953 211.54 290.464 211.532 290.986V291.093C211.532 296.364 211.372 305.404 211.254 307.379H166.449L166.375 290.202L156.96 271.952C154.708 267.657 153.603 262.848 153.755 257.996V257.212C153.755 255.226 156.298 252.918 158.756 250.599C161.406 248.141 164.098 245.607 164.098 243.16V211.158C164.094 210.021 164.336 208.897 164.809 207.864C165.282 206.832 165.973 205.915 166.835 205.179C167.697 204.443 168.709 203.905 169.8 203.602C170.89 203.3 172.033 203.24 173.149 203.428C174.997 203.763 176.666 204.745 177.861 206.199C179.057 207.654 179.7 209.486 179.678 211.372V234.196L179.988 234.754L180.362 234.368C180.876 233.841 181.49 233.422 182.167 233.137C182.844 232.851 183.571 232.704 184.305 232.704H185.256C186.73 232.709 188.141 233.301 189.183 234.349C190.224 235.397 190.81 236.816 190.812 238.297L191.699 238.329ZM212.9 289.537C213.052 289.356 213.246 289.215 213.466 289.129L212.9 289.537Z" fill="black"/>
<path d="M214.823 307.798H163.756C161.62 307.798 159.888 309.537 159.888 311.684V333.723C159.888 335.87 161.62 337.61 163.756 337.61H214.823C216.959 337.61 218.691 335.87 218.691 333.723V311.684C218.691 309.537 216.959 307.798 214.823 307.798Z" fill="#F8A97F" stroke="black" stroke-miterlimit="10"/>
<path d="M169.345 328.098C172.313 328.098 174.72 325.681 174.72 322.698C174.72 319.716 172.313 317.298 169.345 317.298C166.376 317.298 163.97 319.716 163.97 322.698C163.97 325.681 166.376 328.098 169.345 328.098Z" fill="black"/>
<path d="M249.444 59.8638C258.893 59.8638 266.552 52.1688 266.552 42.6765C266.552 33.1842 258.893 25.4891 249.444 25.4891C239.996 25.4891 232.337 33.1842 232.337 42.6765C232.337 52.1688 239.996 59.8638 249.444 59.8638Z" fill="#79E252"/>
<path d="M249.444 60.9373C245.852 60.9373 242.339 59.867 239.352 57.8616C236.365 55.8563 234.036 53.006 232.662 49.6712C231.287 46.3364 230.927 42.6669 231.628 39.1267C232.329 35.5866 234.059 32.3347 236.599 29.7824C239.14 27.23 242.377 25.4919 245.9 24.7877C249.424 24.0835 253.077 24.4449 256.396 25.8262C259.715 27.2075 262.552 29.5467 264.548 32.5479C266.544 35.5492 267.61 39.0776 267.61 42.6872C267.61 47.5274 265.696 52.1694 262.289 55.592C258.883 59.0146 254.262 60.9373 249.444 60.9373ZM249.444 26.5841C246.274 26.5841 243.175 27.5285 240.539 29.298C237.904 31.0674 235.849 33.5823 234.636 36.5248C233.423 39.4672 233.105 42.705 233.724 45.8287C234.342 48.9524 235.869 51.8217 238.111 54.0738C240.352 56.3258 243.208 57.8595 246.317 58.4808C249.427 59.1022 252.649 58.7833 255.578 57.5645C258.507 56.3457 261.01 54.2817 262.771 51.6336C264.533 48.9854 265.473 45.8721 265.473 42.6872C265.473 38.4164 263.784 34.3205 260.778 31.3006C257.772 28.2807 253.695 26.5841 249.444 26.5841Z" fill="white"/>
<path d="M245.704 49.4826C245.458 49.4829 245.215 49.4212 244.999 49.303C244.782 49.1849 244.599 49.0141 244.465 48.8063C243.183 46.9504 241.663 45.272 239.945 43.8143C239.643 43.5638 239.453 43.203 239.416 42.8114C239.379 42.4199 239.498 42.0295 239.747 41.7263C239.997 41.4231 240.356 41.2318 240.745 41.1946C241.135 41.1573 241.524 41.2771 241.826 41.5277C243.278 42.7633 244.612 44.1326 245.811 45.6179C245.256 46.2083 257.362 33.1326 259.264 36.4284C259.475 36.7517 259.549 37.1457 259.471 37.524C259.393 37.9023 259.169 38.2341 258.848 38.4466C249.252 44.4692 248.13 48.7419 245.704 49.4826Z" fill="white"/>
<defs>
<clipPath id="clip0_86_1439">
<rect width="327" height="323" fill="white"/>
</clipPath>
</defs>
</svg>
