<svg width="16" height="16" viewBox="0 0 16 16" fill="none" xmlns="http://www.w3.org/2000/svg">
<path d="M7.3248 13.775L3.2748 11.4688C3.0623 11.3313 2.89668 11.1625 2.77793 10.9625C2.65918 10.7625 2.5998 10.5375 2.5998 10.2875V5.6938C2.5998 5.45792 2.65887 5.23609 2.77699 5.02831C2.89512 4.82052 3.06105 4.65485 3.2748 4.5313L7.3248 2.2063C7.53894 2.0813 7.76435 2.0188 8.00104 2.0188C8.23772 2.0188 8.4623 2.0813 8.6748 2.2063L12.7248 4.5313C12.9386 4.65485 13.1045 4.82052 13.2226 5.02831C13.3407 5.23609 13.3998 5.45792 13.3998 5.6938V10.3063C13.3998 10.5563 13.3404 10.7782 13.2217 10.9719C13.1029 11.1657 12.9373 11.3313 12.7248 11.4688L8.6748 13.775C8.46067 13.9 8.23525 13.9625 7.99857 13.9625C7.76189 13.9625 7.5373 13.9 7.3248 13.775ZM0.799805 4.40005V2.15005C0.799805 1.77505 0.931992 1.4563 1.19637 1.1938C1.46074 0.931299 1.77855 0.800049 2.1498 0.800049H4.3998V2.15005H2.1498V4.40005H0.799805ZM4.3998 15.2H2.1498C1.7748 15.2 1.45605 15.0679 1.19355 14.8035C0.931055 14.5391 0.799805 14.2213 0.799805 13.85V11.6H2.1498V13.85H4.3998V15.2ZM11.5998 15.2V13.85H13.8498V11.6H15.1998V13.85C15.1998 14.225 15.0676 14.5438 14.8032 14.8063C14.5389 15.0688 14.2211 15.2 13.8498 15.2H11.5998ZM13.8498 4.40005V2.15005H11.5998V0.800049H13.8498C14.2248 0.800049 14.5436 0.932237 14.8061 1.19661C15.0686 1.46099 15.1998 1.7788 15.1998 2.15005V4.40005H13.8498ZM4.7373 5.26255L3.9498 5.71255V6.35005L7.3248 8.37505V12.2375L7.9998 12.6313L8.6748 12.2375V8.3938L12.0498 6.3688V5.71255L11.2623 5.26255L7.9998 7.21255L4.7373 5.26255Z" fill="#009180"/>
</svg>
