<svg width="22" height="18" viewBox="0 0 22 18" fill="none" xmlns="http://www.w3.org/2000/svg">
<path d="M5.16409 14.0805C4.4698 13.552 3.81099 13.0754 3.17909 12.5628C2.0829 11.673 1.10294 10.6524 0.216573 9.53449C-0.0531914 9.1943 -0.0770481 8.82913 0.181094 8.50624C2.10003 6.10573 4.33767 4.13766 7.12095 2.92042C9.85836 1.72305 12.575 1.8262 15.2622 3.10045C15.4457 3.18758 15.5393 3.15298 15.6672 3.01652C16.3688 2.26888 17.0784 1.52958 17.7855 0.788344C17.9972 0.566039 18.2474 0.483395 18.5385 0.576289C18.8107 0.662777 18.979 0.860097 19.0395 1.14775C19.105 1.45846 18.9869 1.70511 18.7771 1.92357C17.8137 2.92875 16.8545 3.93842 15.8941 4.94616C12.0244 9.00659 8.15597 13.0683 4.28078 17.123C4.14253 17.2678 3.95168 17.3933 3.7645 17.4433C3.45436 17.5259 3.14912 17.3337 3.00781 17.0378C2.86222 16.7335 2.91483 16.3978 3.16318 16.1351C3.7596 15.5034 4.35969 14.8762 4.96039 14.249C5.01973 14.1875 5.09191 14.1401 5.16409 14.0818V14.0805ZM12.9444 5.7931C11.6984 4.83084 9.62713 4.88081 8.29483 6.40684C6.98577 7.9066 7.15766 9.99319 7.9541 11.0285C9.61673 9.28399 11.2818 7.53694 12.9444 5.7931Z" fill="#828282"/>
<path d="M18.1154 4.82063C18.6024 5.23898 19.126 5.63234 19.5848 6.09617C20.3365 6.85598 21.0535 7.65486 21.7704 8.45183C22.0659 8.78049 22.0738 9.16488 21.8077 9.49609C19.8649 11.9177 17.604 13.9082 14.7798 15.112C12.5972 16.0429 10.3724 16.1825 8.11212 15.4336C8.09132 15.4266 8.07175 15.415 8.03015 15.3958C8.07848 15.3362 8.11701 15.2818 8.16228 15.2337C8.89572 14.463 9.62733 13.6904 10.3669 12.9261C10.4323 12.8589 10.5504 12.7993 10.6367 12.8095C12.3231 13.0036 13.9362 11.9165 14.4727 10.2053C14.6342 9.69085 14.7082 9.16423 14.6323 8.61968C14.6213 8.54024 14.6562 8.42621 14.7094 8.36919C15.8111 7.20321 16.9183 6.04363 18.0249 4.88342C18.0402 4.8674 18.0616 4.85715 18.1142 4.82063H18.1154Z" fill="#828282"/>
</svg>
