<svg width="22" height="14" viewBox="0 0 22 14" fill="none" xmlns="http://www.w3.org/2000/svg">
<path d="M22.0001 6.91C21.9996 6.73836 21.9395 6.57221 21.8301 6.44C20.019 4.04666 17.6456 2.13693 14.9201 0.879997C14.0761 0.507503 13.1841 0.255051 12.2701 0.129997H12.2001C11.945 0.0913589 11.6879 0.0679841 11.4301 0.0599976H10.6201C10.3589 0.0684372 10.0985 0.0918087 9.84007 0.129997C8.90962 0.253452 8.00089 0.505876 7.14007 0.879997C4.4023 2.13031 2.01262 4.03244 0.180068 6.42C0.059096 6.55848 -0.00756836 6.73612 -0.00756836 6.92C-0.00756836 7.10388 0.059096 7.28152 0.180068 7.42C1.06405 8.52965 2.07042 9.53602 3.18007 10.42C3.81007 10.94 4.47007 11.42 5.18007 11.94C6.03865 12.5675 6.99016 13.0568 8.00007 13.39C8.95259 13.6816 9.94393 13.8266 10.9401 13.82C12.2538 13.8401 13.5554 13.5668 14.7501 13.02C15.4815 12.706 16.187 12.3349 16.8601 11.91C18.7494 10.6964 20.4225 9.17546 21.8101 7.41C21.9221 7.26613 21.9883 7.09193 22.0001 6.91ZM11.0001 10.77C10.2366 10.77 9.49034 10.5436 8.85557 10.1195C8.22079 9.69533 7.72605 9.09248 7.43389 8.38716C7.14174 7.68183 7.0653 6.90571 7.21424 6.15695C7.36318 5.40818 7.7308 4.7204 8.27064 4.18057C8.81047 3.64073 9.49825 3.27311 10.247 3.12417C10.9958 2.97523 11.7719 3.05167 12.4772 3.34382C13.1825 3.63598 13.7854 4.13072 14.2095 4.7655C14.6337 5.40027 14.8601 6.14656 14.8601 6.91C14.8601 7.93373 14.4534 8.91554 13.7295 9.63943C13.0056 10.3633 12.0238 10.77 11.0001 10.77Z" fill="#828282"/>
</svg>
