<svg width="326" height="250" viewBox="0 0 326 289" fill="none" xmlns="http://www.w3.org/2000/svg">
<g opacity="0.65" clip-path="url(#clip0_86_1357)">
<path d="M79.8638 42.0711C99.0198 30.532 120.655 23.6867 142.442 18.5582C174.339 11.061 207.824 7.04081 239.787 14.212C271.75 21.3832 301.995 41.68 315.172 71.6687C324.739 93.3996 324.565 118.477 319.716 141.773C305.539 209.747 250.137 267.356 182.732 284.176C156.444 290.695 128.004 291.347 102.76 281.438C77.5155 271.528 56.0981 250.123 50.2926 223.655C47.553 211.16 48.1183 197.578 42.0954 186.343C37.5945 177.955 29.832 171.74 24.8745 163.612C17.8079 152.073 17.0251 137.535 19.8083 124.366C26.7227 91.4656 51.3581 59.282 79.8638 42.0711Z" fill="#FDECE5"/>
<path d="M311.845 35.3562C318.846 36.2255 325.391 29.7497 325.957 22.7306C326.522 15.7115 322.108 8.93138 316.172 5.12846C310.013 1.60328 303.003 -0.163222 295.907 0.0217096C284.427 -0.173869 276.686 6.54099 285.34 15.4941C290.841 21.1442 303.909 34.3783 311.845 35.3562Z" fill="#FDECE5"/>
<path d="M7.67545 189.103C11.9145 189.103 15.3509 185.668 15.3509 181.432C15.3509 177.195 11.9145 173.761 7.67545 173.761C3.43642 173.761 0 177.195 0 181.432C0 185.668 3.43642 189.103 7.67545 189.103Z" fill="#FDECE5"/>
</g>
<defs>
<clipPath id="clip0_86_1357">
<rect width="326" height="289" fill="white"/>
</clipPath>
</defs>
</svg>
