<svg width="249" height="250" viewBox="0 0 249 290" fill="none" xmlns="http://www.w3.org/2000/svg">
<path d="M141.534 239.652H155.181L163.993 187.414C164.428 177.55 157.945 174.697 150.669 172.695C145.867 171.375 126.786 167.031 122.12 165.242L112.814 161.835C98.6378 165.123 89.929 156.58 89.929 156.58C89.929 156.58 80.9727 185.403 93.7673 187.959C102.579 189.713 130.53 189.833 143.393 190.173C143.629 190.179 143.861 190.233 144.074 190.333C144.288 190.433 144.478 190.576 144.634 190.752C144.789 190.929 144.906 191.136 144.978 191.361C145.049 191.585 145.073 191.822 145.048 192.056L141.534 239.652Z" fill="#E09370" stroke="black" stroke-miterlimit="10"/>
<path d="M107.534 105.942C105.965 111.13 108.387 117.211 109.138 122.577L112.55 140.865C113.488 150.796 118.614 152.227 127.349 153.445L158.414 155.047L164.249 149.442L165.383 149.229C127.059 143.599 125.08 142.415 125.012 135.558C125.012 134.315 125.012 133.063 125.106 131.819L125.532 124.153C125.259 120.695 121.642 117.62 121.736 114.145C121.881 108.881 122.026 101.113 115.143 98.3276C111.066 96.6837 109.266 100.176 107.534 105.942Z" fill="#F3C19B"/>
<mask id="mask0_86_1361" style="mask-type:luminance" maskUnits="userSpaceOnUse" x="107" y="97" width="59" height="59">
<path d="M107.534 105.942C105.965 111.13 108.387 117.211 109.138 122.577L112.55 140.865C113.488 150.796 118.614 152.227 127.349 153.445L158.414 155.047L164.249 149.442L165.383 149.229C127.059 143.599 125.08 142.415 125.012 135.558C125.012 134.315 125.012 133.063 125.106 131.819L125.532 124.153C125.259 120.695 121.642 117.62 121.736 114.145C121.881 108.881 122.026 101.113 115.143 98.3276C111.066 96.6837 109.266 100.176 107.534 105.942Z" fill="white"/>
</mask>
<g mask="url(#mask0_86_1361)">
<path opacity="0.4" d="M162.909 155.489C120.261 153.258 116.849 153.88 112.678 126.725C111.424 118.523 110.972 105.482 115.177 98.3446L104.464 100.159L112.047 141.648C111.449 151.409 118.282 154.995 124.645 153.828L163.029 156.563L162.952 155.506L162.909 155.489Z" fill="#F3C19B" stroke="black" stroke-miterlimit="10"/>
</g>
<path d="M107.534 105.942C105.965 111.13 108.387 117.211 109.138 122.577L112.55 140.865C113.488 150.796 118.614 152.227 127.349 153.445L158.414 155.047L164.248 149.442L165.383 149.229C127.059 143.599 125.08 142.415 125.012 135.558C125.012 134.315 125.012 133.063 125.106 131.819L125.532 124.153C125.259 120.695 121.642 117.62 121.736 114.145C121.881 108.881 122.026 101.113 115.143 98.3276C111.066 96.6837 109.266 100.176 107.534 105.942Z" stroke="black" stroke-miterlimit="10"/>
<path d="M137.124 239.371L148.298 240.104C150.004 240.104 150.703 240.104 150.993 238.4L159.301 189.126C159.736 179.262 153.254 176.409 145.978 174.407C141.176 173.087 122.095 168.743 117.429 166.954L108.123 163.547C93.9465 166.835 85.2377 158.292 85.2377 158.292C85.2377 158.292 76.3155 187.132 89.1101 189.688C97.9214 191.442 125.873 191.562 138.736 191.902C138.972 191.908 139.204 191.963 139.417 192.062C139.631 192.162 139.821 192.305 139.976 192.482C140.132 192.658 140.249 192.865 140.32 193.09C140.392 193.314 140.416 193.551 140.391 193.785L137.124 239.371Z" fill="#F8A97F"/>
<path d="M137.124 239.371L148.298 240.104C150.004 240.104 150.703 240.104 150.993 238.4L159.301 189.126C159.736 179.262 153.254 176.409 145.978 174.407C141.176 173.087 122.095 168.743 117.429 166.954L108.123 163.547C93.9465 166.835 85.2377 158.292 85.2377 158.292C85.2377 158.292 76.3155 187.132 89.1101 189.688C97.9214 191.442 125.873 191.562 138.736 191.902C138.972 191.908 139.204 191.963 139.417 192.062C139.631 192.162 139.821 192.305 139.976 192.482C140.132 192.658 140.249 192.865 140.32 193.09C140.392 193.314 140.416 193.551 140.391 193.785L137.124 239.371Z" stroke="black" stroke-miterlimit="10"/>
<path d="M154.968 238.238C154.968 238.238 166.91 239.439 169.895 243.698C171.908 246.577 169.469 250.086 166.483 250.725C163.498 251.364 140.468 248.17 140.468 248.17L141.96 240.504" fill="#F8A97F"/>
<path d="M154.968 238.238C154.968 238.238 166.91 239.439 169.895 243.698C171.908 246.577 169.469 250.086 166.483 250.725C163.498 251.364 140.468 248.17 140.468 248.17L141.96 240.504" stroke="black" stroke-miterlimit="10"/>
<path d="M165.272 247.574C164.954 248.42 164.43 249.174 163.748 249.768C163.067 250.363 162.248 250.779 161.365 250.981C160.066 251.109 158.758 251.109 157.459 250.981C157.072 250.731 156.757 250.386 156.545 249.978C156.333 249.57 156.23 249.115 156.248 248.655C156.254 248.253 156.308 247.853 156.41 247.463C157.219 245.012 158.654 242.813 160.572 241.083C162.204 241.659 163.655 242.655 164.777 243.971C165.147 244.486 165.386 245.083 165.472 245.711C165.558 246.339 165.49 246.978 165.272 247.574Z" fill="#C14652"/>
<path d="M165.272 247.574C164.954 248.42 164.43 249.174 163.748 249.768C163.067 250.363 162.248 250.779 161.366 250.981C160.067 251.109 158.758 251.109 157.459 250.981C150.021 250.478 135.35 248.425 135.35 248.425L136.024 244.712C142.634 246.526 150.234 247.224 156.393 247.48C160.035 247.582 163.157 247.582 165.272 247.574Z" fill="#C14652"/>
<path d="M165.272 247.574C164.954 248.42 164.43 249.174 163.748 249.768C163.067 250.363 162.248 250.779 161.366 250.981C160.067 251.109 158.758 251.109 157.459 250.981C150.021 250.478 135.35 248.425 135.35 248.425L136.024 244.712L137.107 238.809L148.341 238.025C148.341 238.025 155.531 238.937 160.555 241.1C162.187 241.677 163.637 242.673 164.76 243.988C165.13 244.499 165.37 245.093 165.459 245.718C165.549 246.342 165.484 246.979 165.272 247.574Z" fill="#F8A97F" stroke="black" stroke-miterlimit="10"/>
<path d="M77.2026 147.849H22.5953C19.7735 147.849 17.486 150.133 17.486 152.951V194.705C17.486 197.522 19.7735 199.807 22.5953 199.807H77.2026C80.0244 199.807 82.3119 197.522 82.3119 194.705V152.951C82.3119 150.133 80.0244 147.849 77.2026 147.849Z" fill="#FDC94F"/>
<mask id="mask1_86_1361" style="mask-type:luminance" maskUnits="userSpaceOnUse" x="17" y="147" width="66" height="53">
<path d="M77.2026 147.858H22.5953C19.7735 147.858 17.486 150.142 17.486 152.96V194.713C17.486 197.531 19.7735 199.815 22.5953 199.815H77.2026C80.0244 199.815 82.3119 197.531 82.3119 194.713V152.96C82.3119 150.142 80.0244 147.858 77.2026 147.858Z" fill="white"/>
</mask>
<g mask="url(#mask1_86_1361)">
<path d="M58.4286 143.59H41.3691V163.019H58.4286V143.59Z" fill="#FCB932"/>
<path d="M90.7819 171.937H12.7349V174.492H90.7819V171.937Z" fill="#FCB932"/>
<path d="M90.3554 182.584H12.3083V185.139H90.3554V182.584Z" fill="#FCB932"/>
<path opacity="0.3" d="M74.6095 141.895C74.6095 141.895 80.1539 194.705 1.25383 190.446L-0.0256348 207.907L86.1247 210.462L86.9776 142.321L74.6095 141.895Z" fill="#FCB932"/>
</g>
<path d="M190.597 157.806C196.071 157.806 200.508 153.226 200.508 147.577C200.508 141.927 196.071 137.347 190.597 137.347C185.123 137.347 180.685 141.927 180.685 147.577C180.685 153.226 185.123 157.806 190.597 157.806Z" fill="#FDC94F"/>
<mask id="mask2_86_1361" style="mask-type:luminance" maskUnits="userSpaceOnUse" x="180" y="137" width="21" height="21">
<path d="M190.597 157.806C196.071 157.806 200.508 153.226 200.508 147.577C200.508 141.927 196.071 137.347 190.597 137.347C185.123 137.347 180.685 141.927 180.685 147.577C180.685 153.226 185.123 157.806 190.597 157.806Z" fill="white"/>
</mask>
<g mask="url(#mask2_86_1361)">
<path opacity="0.3" d="M191.467 136.538C189.765 136.549 188.095 137.002 186.62 137.851C185.146 138.701 183.918 139.918 183.057 141.384C184.856 139.648 187.259 138.674 189.761 138.667C192.432 138.712 194.976 139.814 196.835 141.73C198.693 143.646 199.714 146.221 199.673 148.888C199.675 150.789 199.156 152.654 198.171 154.28C199.187 153.308 199.993 152.14 200.542 150.847C201.09 149.554 201.369 148.163 201.361 146.759C201.403 144.094 200.384 141.522 198.529 139.606C196.675 137.691 194.135 136.587 191.467 136.538Z" fill="#FCFAF7"/>
</g>
<path d="M243.737 240.862C243.733 240.831 243.733 240.799 243.737 240.768C243.596 240.993 243.443 241.209 243.277 241.415C242.618 242.229 241.751 242.85 240.769 243.213C238.926 243.894 236.965 244.661 234.909 245.487C232.183 242.521 228.583 240.497 224.63 239.709C220.677 238.92 216.575 239.408 212.917 241.1C209.26 242.793 206.236 245.603 204.283 249.125C202.329 252.646 201.548 256.697 202.052 260.691C199.348 262.096 196.824 263.476 194.546 264.771C194.427 264.839 194.307 264.907 194.179 264.967C192.839 265.613 191.305 265.73 189.882 265.296C188.459 264.862 187.252 263.908 186.503 262.624C185.118 263.267 183.619 263.629 182.093 263.689L136.032 265.393C128.134 265.575 120.258 264.477 112.712 262.139C110.085 261.287 106.741 260.435 102.724 259.583C101.104 260.506 99.302 261.064 97.4437 261.219L93.8698 261.5C93.8063 256.531 91.7941 251.784 88.2651 248.28C84.7361 244.775 79.9718 242.792 74.995 242.757C70.0183 242.721 65.2259 244.635 61.6469 248.089C58.0679 251.542 55.9876 256.259 55.8527 261.227C52.9919 260.834 50.1991 260.049 47.5533 258.894C44.8664 257.616 43.2117 255.895 43.0752 253.621C42.9227 253.035 42.8822 252.425 42.9558 251.824C43.0062 251.343 43.086 250.865 43.1946 250.393C43.4072 249.428 43.707 248.484 44.0902 247.574C43.8925 247.39 43.7074 247.194 43.5358 246.986C42.6941 245.988 42.0669 244.829 41.6933 243.579C41.4464 243.63 41.1949 243.656 40.9428 243.656C38.3838 243.656 36.2514 241.177 36.2514 238.119C36.2356 236.707 36.712 235.334 37.5991 234.235C37.9988 233.729 38.5062 233.318 39.0845 233.033C39.6629 232.747 40.2976 232.593 40.9428 232.583C41.0963 232.583 41.2413 232.583 41.3948 232.583C41.5057 231.986 41.6422 231.39 41.7957 230.802C43.0888 226.132 45.369 221.793 48.483 218.077C49.4448 216.89 50.4669 215.753 51.5452 214.67C57.0901 209.175 63.6712 204.832 70.9077 201.894H29.0011C28.6618 201.894 28.3364 201.759 28.0964 201.519C27.8565 201.28 27.7217 200.955 27.7217 200.616C27.7217 200.277 27.8565 199.952 28.0964 199.712C28.3364 199.473 28.6618 199.338 29.0011 199.338H84.7173C84.463 198.851 84.2738 198.333 84.1544 197.797C84.3099 197.871 84.4693 197.936 84.632 197.992C84.4989 197.498 84.4301 196.988 84.4273 196.476C84.4318 194.84 85.0848 193.272 86.2435 192.115C87.4023 190.958 88.9727 190.306 90.6114 190.301H129.959C131.401 190.298 132.799 190.799 133.91 191.716C135.022 192.633 135.777 193.909 136.047 195.324C136.316 196.738 136.081 198.202 135.384 199.463C134.687 200.723 133.57 201.7 132.228 202.226C132.96 203.095 133.469 204.13 133.711 205.24C133.953 206.35 133.922 207.502 133.618 208.597L127.912 229.261C127.912 229.763 127.912 230.274 127.861 230.811C127.833 231.949 127.89 233.088 128.031 234.218C128.62 238.676 130.86 242.752 134.31 245.643C137.76 248.533 142.17 250.027 146.669 249.831L176.139 249.175C182.963 249.064 191.962 231.007 195.757 225.326C195.92 225.087 196.064 224.84 196.209 224.593C199.28 217.643 195.962 208.197 192.627 201.195L170.45 158.607C169.675 157.378 168.481 156.471 167.089 156.052L161.545 162.133C161.221 162.489 160.826 162.772 160.385 162.964C159.944 163.157 159.467 163.254 158.986 163.249C158.32 163.257 157.667 163.071 157.106 162.713C156.546 162.355 156.102 161.841 155.83 161.235C155.558 160.628 155.47 159.955 155.576 159.299C155.682 158.643 155.978 158.032 156.427 157.542L159.054 154.663C153.689 152.525 152.853 149.186 154.627 146.461C155.531 143.948 158.636 141.716 162.636 140.992C164.206 140.711 165.656 140.507 167.012 140.379C165.016 138.189 162.604 136.417 159.915 135.166C159.613 135.8 159.203 136.376 158.704 136.87C158.27 137.316 157.752 137.672 157.18 137.917C156.607 138.163 155.992 138.293 155.369 138.301C155.19 138.301 155.019 138.301 154.84 138.301L154.584 138.258C154.501 138.246 154.418 138.229 154.337 138.207C154.221 138.182 154.107 138.148 153.996 138.105H153.851L153.458 137.943H153.382C153.245 137.875 153.109 137.798 152.972 137.713L152.554 137.424C151.784 136.786 151.169 135.983 150.753 135.074C150.338 134.166 150.135 133.175 150.157 132.177C150.157 128.727 152.512 125.933 155.403 125.933C156.178 125.935 156.939 126.137 157.612 126.521C158.068 126.775 158.482 127.096 158.841 127.475C159.022 127.662 159.19 127.861 159.344 128.071C159.499 128.287 159.641 128.512 159.77 128.744V128.795C159.892 129.005 159.994 129.224 160.078 129.451L160.137 129.579C160.223 129.826 160.308 130.073 160.376 130.337C160.376 130.337 160.376 130.388 160.376 130.414C160.427 130.643 160.478 130.882 160.513 131.12V131.333C160.513 131.495 160.513 131.666 160.513 131.827C164.761 133.647 168.43 136.593 171.124 140.345C173.013 140.364 174.892 140.633 176.711 141.146C179.298 138.092 182.836 135.993 186.759 135.183C187.423 135.03 188.113 135.028 188.779 135.177C189.444 135.327 190.067 135.624 190.602 136.047C191.136 136.471 191.568 137.008 191.865 137.621C192.163 138.234 192.318 138.906 192.32 139.587V155.115C192.328 155.276 192.328 155.438 192.32 155.6V155.966C192.32 156.831 192.072 157.677 191.605 158.405C191.138 159.133 190.471 159.711 189.684 160.072C196.926 167.806 210.019 182.763 217.167 196.962C217.449 196.916 217.734 196.893 218.02 196.894H227.829C229.469 196.894 231.042 197.544 232.202 198.702C233.362 199.86 234.013 201.431 234.013 203.069C234.013 204.707 233.362 206.277 232.202 207.436C231.042 208.594 229.469 209.244 227.829 209.244H221.696C222.171 211.483 222.297 213.781 222.072 216.058C221.903 217.53 221.641 218.99 221.287 220.428C225.829 220.668 230.272 221.848 234.334 223.893C238.395 225.939 241.987 228.805 244.88 232.31C245.394 232.936 245.773 233.66 245.995 234.438C246.217 235.216 246.276 236.032 246.168 236.834C246.061 237.636 245.79 238.407 245.372 239.1C244.954 239.793 244.397 240.393 243.737 240.862Z" fill="#EA6868" stroke="black" stroke-miterlimit="10"/>
<path d="M94.117 77.0335C92.5902 76.4798 89.8522 83.7369 98.8254 85.2445C98.8254 85.2445 103.466 93.7621 108.08 80.8749" fill="#070302"/>
<path d="M85.9883 164.041C83.1649 163.411 83.89 158.649 83.9582 155.753C84.197 146.052 86.3124 116.019 95.115 101.062C96.7442 98.2765 98.6037 95.9 102.715 94.4606C105.129 93.6088 105.956 88.0127 106.98 84.3586L121.77 91.8712C121.77 91.8712 117.932 96.7007 121.208 101.241C122.231 102.672 122.06 129.034 122.06 129.034C122.06 129.034 126.146 149.68 122.35 162.568C121.745 164.637 119.553 167.355 117.437 166.946L85.9883 164.041Z" fill="#EA9C7A"/>
<mask id="mask3_86_1361" style="mask-type:luminance" maskUnits="userSpaceOnUse" x="83" y="84" width="41" height="83">
<path d="M85.9883 164.041C83.1649 163.411 83.89 158.649 83.9582 155.753C84.197 146.052 86.3124 116.019 95.115 101.062C96.7442 98.2765 98.6037 95.9 102.715 94.4606C105.129 93.6088 105.956 88.0127 106.98 84.3586L121.77 91.8712C121.77 91.8712 117.932 96.7007 121.208 101.241C122.231 102.672 122.06 129.034 122.06 129.034C122.06 129.034 126.146 149.68 122.35 162.568C121.745 164.637 119.553 167.355 117.437 166.946L85.9883 164.041Z" fill="white"/>
</mask>
<g mask="url(#mask3_86_1361)">
<path d="M94.9275 96.607C102.604 92.7145 110.332 95.1079 123.852 102.672C125.737 103.728 131.281 96.3259 131.281 96.3259L117.31 81.0709L101.606 79.0266L94.9275 96.607Z" fill="#F7C19B"/>
<path opacity="0.1" d="M105.547 110.729C105.547 110.729 105.547 140.132 110.486 150.362C115.8 161.435 139.308 156.273 139.308 156.273L118.836 144.399L105.547 110.729Z" fill="#AD3E47"/>
<path d="M139.99 52.3408C137.474 95.2271 133.951 106.147 115.254 95.8489C98.0239 86.3858 89.332 78.6177 84.8454 52.9456C80.5805 28.5511 91.5754 29.0536 108.311 27.9719C136.732 26.132 140.655 41.0464 139.99 52.3408Z" fill="#F7C19B"/>
<path opacity="0.1" d="M102.758 94.4606C102.758 94.4606 90.9782 95.9171 89.8608 139.076L86.031 164.041L79.6422 158.513C79.6422 158.513 81.024 95.389 102.758 94.4606Z" fill="#AD3E47"/>
</g>
<path d="M85.9883 164.041C83.1649 163.411 83.89 158.649 83.9582 155.753C84.197 146.052 86.3124 116.019 95.115 101.062C96.7442 98.2765 98.6037 95.9 102.715 94.4606C105.129 93.6088 105.956 88.0127 106.98 84.3586L121.77 91.8712C121.77 91.8712 117.932 96.7007 121.208 101.241C122.231 102.672 122.06 129.034 122.06 129.034C122.06 129.034 126.146 149.68 122.35 162.568C121.745 164.637 119.553 167.355 117.437 166.946L85.9883 164.041Z" stroke="black" stroke-miterlimit="10"/>
<path d="M133.542 37.4691C136.869 41.3853 138.74 46.3287 138.839 51.4636C140.033 91.4965 136.365 102.885 118.188 92.8082C104.003 84.9379 92.2236 80.2447 88.8031 54.4192C88.0269 48.5335 90.6797 32.8611 107.236 30.2461C121.318 28.023 129.2 32.4693 133.542 37.4691Z" fill="#F7C19B"/>
<mask id="mask4_86_1361" style="mask-type:luminance" maskUnits="userSpaceOnUse" x="88" y="29" width="52" height="68">
<path d="M133.541 37.4691C136.869 41.3853 138.74 46.3287 138.838 51.4636C140.033 91.4965 136.365 102.885 118.188 92.8082C104.003 84.9379 92.2234 80.2447 88.803 54.4192C88.0268 48.5335 90.6796 32.8611 107.236 30.2461C121.318 28.023 129.2 32.4693 133.541 37.4691Z" fill="white"/>
</mask>
<g mask="url(#mask4_86_1361)">
<path opacity="0.05" d="M156.572 0.562218C156.572 0.562218 176.113 102.859 120.602 107.186C120.602 107.186 160.973 114 167.797 90.9514C174.621 67.9027 188.447 -3.02371 156.572 0.562218Z" fill="#F7C19B" stroke="black" stroke-miterlimit="10"/>
</g>
<path d="M133.542 37.4691C136.869 41.3853 138.74 46.3287 138.839 51.4636C140.033 91.4965 136.365 102.885 118.188 92.8082C104.003 84.9379 92.2236 80.2447 88.8031 54.4192C88.0269 48.5335 90.6797 32.8611 107.236 30.2461C121.318 28.023 129.2 32.4693 133.542 37.4691Z" stroke="black" stroke-miterlimit="10"/>
<path d="M137.815 69.8531C137.815 69.8531 142.847 79.1033 141.994 80.2361C140.928 81.7012 135.418 81.9397 135.418 81.9397" fill="#F7C19B"/>
<path d="M137.815 69.8531C137.815 69.8531 142.847 79.1033 141.994 80.2361C140.928 81.7012 135.418 81.9397 135.418 81.9397" stroke="black" stroke-miterlimit="10"/>
<path d="M134.625 71.6845C134.505 73.9842 132.996 75.7815 131.213 75.6878C129.43 75.5941 128.142 73.6691 128.262 71.3693C128.381 69.0696 129.882 67.2723 131.631 67.3575C133.379 67.4427 134.736 69.3847 134.625 71.6845Z" fill="#1D1D1B"/>
<path d="M105.453 73.2773C106.17 69.5551 109.547 67.085 112.993 67.7493C116.439 68.4137 118.64 72.0081 117.915 75.6963C117.19 79.3844 113.812 81.8886 110.375 81.2242C106.937 80.5598 104.728 76.9995 105.453 73.2773Z" fill="#F7C19B"/>
<path d="M126.138 64.6233C127.154 63.6576 128.415 62.9883 129.785 62.688C131.155 62.3876 132.581 62.4678 133.908 62.9198" stroke="#070302" stroke-width="3.23" stroke-linecap="round" stroke-linejoin="round"/>
<path d="M101.683 78.4814C101.683 78.4814 106.801 90.5935 125.933 96.4707" stroke="#F29870" stroke-width="4" stroke-linecap="round" stroke-linejoin="round"/>
<path d="M117.258 54.0103C117.258 54.0103 126.035 62.7664 134.25 60.7818C142.464 58.7972 137.661 54.0529 137.661 54.0529C137.661 54.0529 138.267 61.0885 143.982 61.1225C149.697 61.1566 143.683 45.8419 132.774 48.9678" fill="#070302"/>
<path d="M140.681 54.3937H129.447C119.638 54.3937 110.545 64.3423 110.58 74.129V77.1869C110.583 78.3821 110.291 79.5596 109.727 80.6141C109.164 81.6686 108.348 82.5673 107.351 83.2297C106.355 83.8921 105.21 84.2976 104.018 84.4099C102.827 84.5222 101.626 84.3378 100.523 83.8732C93.503 80.9006 85.1097 75.0064 83.3952 63.5757C80.1881 42.1794 95.9937 24.3945 111.441 23.9772C131.221 23.3895 143.811 35.2034 144.263 50.7652C144.273 51.2399 144.186 51.7116 144.01 52.1526C143.834 52.5935 143.571 52.9949 143.238 53.333C142.904 53.6711 142.506 53.9391 142.067 54.1213C141.628 54.3034 141.156 54.396 140.681 54.3937Z" fill="#F8A97F"/>
<mask id="mask5_86_1361" style="mask-type:luminance" maskUnits="userSpaceOnUse" x="82" y="23" width="63" height="62">
<path d="M140.681 54.3937H129.447C119.638 54.3937 110.545 64.3423 110.579 74.129V77.1869C110.583 78.3821 110.29 79.5596 109.727 80.6141C109.164 81.6686 108.347 82.5673 107.351 83.2297C106.355 83.8921 105.21 84.2976 104.018 84.4099C102.827 84.5222 101.626 84.3378 100.523 83.8732C93.5029 80.9006 85.1096 75.0064 83.3951 63.5757C80.1879 42.1794 95.9935 24.3945 111.441 23.9772C131.221 23.3895 143.811 35.2034 144.263 50.7652C144.272 51.2399 144.186 51.7116 144.01 52.1526C143.834 52.5935 143.571 52.9949 143.237 53.333C142.904 53.6711 142.506 53.9391 142.066 54.1213C141.627 54.3034 141.156 54.396 140.681 54.3937Z" fill="white"/>
</mask>
<g mask="url(#mask5_86_1361)">
<path d="M88.948 63.1243C86.1076 44.2151 98.1345 28.202 111.629 24.369C110.861 24.369 110.093 24.369 109.317 24.369C93.8696 24.8205 78.064 42.5712 81.2712 63.9675C82.9772 75.3982 91.379 81.2924 98.3989 84.2651C99.5965 84.7731 100.91 84.9472 102.199 84.7687C103.487 84.5902 104.704 84.0658 105.717 83.2515C98.7742 80.2447 90.6369 74.359 88.948 63.1243Z" fill="#F29870" stroke="black" stroke-miterlimit="10"/>
</g>
<path d="M140.681 54.3937H129.447C119.638 54.3937 110.545 64.3423 110.58 74.129V77.1869C110.583 78.3821 110.291 79.5596 109.727 80.6141C109.164 81.6686 108.348 82.5673 107.351 83.2297C106.355 83.8921 105.21 84.2976 104.018 84.4099C102.827 84.5222 101.626 84.3378 100.523 83.8732C93.503 80.9006 85.1097 75.0063 83.3952 63.5757C80.1881 42.1794 95.9937 24.3945 111.441 23.9772C131.221 23.3895 143.811 35.2034 144.263 50.7652C144.273 51.2399 144.186 51.7116 144.01 52.1526C143.834 52.5935 143.571 52.9949 143.238 53.333C142.904 53.6711 142.506 53.9391 142.067 54.1213C141.628 54.3034 141.156 54.396 140.681 54.3937Z" stroke="black" stroke-miterlimit="10"/>
<path d="M157.902 150.311C155.454 150.106 123.69 144.025 123.621 137.534C123.621 136.291 123.621 135.047 123.715 133.795L124.142 126.129C123.858 122.667 123.752 119.193 123.826 115.721C123.971 110.448 122.973 108.395 116.09 105.61C111.978 103.949 109.01 105.525 107.27 111.291C105.709 116.487 106.946 119.162 107.713 124.536L111.125 142.815C112.064 152.747 117.19 154.186 125.924 155.396L156.998 156.997C158.222 157.041 159.425 157.326 160.537 157.836C161.65 158.346 162.65 159.071 163.481 159.97C163.58 160.094 163.706 160.194 163.851 160.26C163.996 160.327 164.154 160.358 164.313 160.351C164.472 160.344 164.627 160.3 164.766 160.222C164.904 160.144 165.022 160.034 165.11 159.902C165.2 159.708 165.239 159.495 165.224 159.282C165.209 159.069 165.14 158.863 165.025 158.684C164.974 158.582 164.914 158.485 164.846 158.394C164.954 158.471 165.077 158.525 165.207 158.552C165.337 158.58 165.471 158.58 165.602 158.554C165.732 158.528 165.856 158.475 165.965 158.399C166.074 158.323 166.166 158.226 166.236 158.113C166.332 157.912 166.375 157.689 166.36 157.467C166.345 157.245 166.273 157.03 166.151 156.844C166.042 156.654 165.914 156.477 165.767 156.316C165.847 156.373 165.924 156.436 165.997 156.503C166.117 156.609 166.26 156.686 166.415 156.726C166.569 156.767 166.732 156.77 166.888 156.736C167.044 156.702 167.19 156.631 167.314 156.53C167.438 156.429 167.536 156.3 167.601 156.154C167.661 155.94 167.665 155.714 167.612 155.498C167.56 155.281 167.453 155.082 167.302 154.919C167.145 154.722 166.964 154.545 166.765 154.391C166.903 154.471 167.059 154.517 167.219 154.525C167.379 154.533 167.539 154.502 167.684 154.435C167.83 154.368 167.957 154.267 168.055 154.141C168.154 154.015 168.22 153.867 168.249 153.709C168.261 153.487 168.215 153.265 168.116 153.065C168.018 152.866 167.87 152.694 167.686 152.568C166.539 151.873 165.262 151.421 163.933 151.239H163.754L162.756 151.043C164.069 150.191 163.686 147.815 162.159 148.888C160.959 149.862 159.447 150.367 157.902 150.311Z" fill="#F3C19B" stroke="black" stroke-miterlimit="10"/>
<path d="M108.464 127.032C107.604 127.094 106.752 126.84 106.067 126.317C105.382 125.795 104.912 125.04 104.745 124.196C103.432 117.441 101.674 101.82 113.36 101.241C124.875 100.678 126.539 115.55 126.692 122.381C126.712 123.284 126.382 124.159 125.772 124.826C125.162 125.492 124.319 125.898 123.417 125.959L108.464 127.032Z" fill="#E09370" stroke="black" stroke-miterlimit="10"/>
<path d="M102.724 76.1136C105.079 76.1136 106.988 74.2068 106.988 71.8548C106.988 69.5027 105.079 67.5959 102.724 67.5959C100.368 67.5959 98.4587 69.5027 98.4587 71.8548C98.4587 74.2068 100.368 76.1136 102.724 76.1136Z" fill="#070302"/>
<path d="M246.407 248.204C245.44 245.95 244.166 243.84 242.62 241.935C241.613 240.68 240.491 239.522 239.268 238.477C239.541 238.8 239.796 239.141 240.052 239.473C235.943 235.25 230.551 232.502 224.714 231.658C218.878 230.814 212.926 231.921 207.786 234.808C202.646 237.694 198.606 242.197 196.297 247.615C193.987 253.033 193.536 259.062 195.015 264.762C195.352 266.066 195.788 267.342 196.32 268.578C199.026 275.211 204.259 280.498 210.869 283.278C217.479 286.057 224.923 286.101 231.565 283.399C238.207 280.697 243.502 275.471 246.286 268.871C249.069 262.271 249.113 254.836 246.407 248.204ZM228.196 275.247C224.842 276.688 221.136 277.103 217.546 276.44C213.956 275.777 210.644 274.064 208.029 271.52C205.414 268.976 203.613 265.714 202.856 262.148C202.098 258.582 202.417 254.871 203.772 251.486C205.127 248.1 207.457 245.193 210.468 243.131C213.479 241.069 217.035 239.945 220.685 239.902C224.336 239.858 227.917 240.898 230.976 242.888C234.035 244.879 236.434 247.731 237.869 251.083C238.823 253.304 239.33 255.691 239.36 258.107C239.39 260.523 238.944 262.922 238.045 265.166C237.147 267.41 235.815 269.455 234.125 271.185C232.435 272.915 230.42 274.295 228.196 275.247Z" fill="#1E1E1E" stroke="#070302" stroke-miterlimit="10"/>
<path d="M102.161 259.618C102.101 259.115 102.033 258.612 101.947 258.127C101.947 258.544 101.947 258.979 101.947 259.396C101.419 252.669 98.384 246.384 93.4418 241.782C88.4995 237.18 82.0092 234.596 75.2519 234.539C68.4947 234.483 61.9617 236.958 56.9427 241.476C51.9237 245.994 48.7835 252.227 48.1419 258.945C47.8069 262.439 48.1664 265.964 49.1996 269.319C50.945 275.879 55.103 281.54 60.844 285.172C66.585 288.805 73.4866 290.143 80.1717 288.918C86.8568 287.694 92.8336 283.997 96.9095 278.566C100.985 273.135 102.86 266.368 102.161 259.618ZM92.7183 267.002C91.4267 271.32 88.6095 275.023 84.7899 277.423C80.9704 279.823 76.4083 280.757 71.9513 280.051C67.4942 279.346 63.4451 277.048 60.5564 273.586C57.6677 270.124 56.1357 265.732 56.2451 261.227C56.2926 259.6 56.5507 257.985 57.0128 256.423C58.4177 251.695 61.6459 247.718 65.9873 245.367C70.3287 243.015 75.4277 242.483 80.1625 243.885C84.8974 245.288 88.8802 248.512 91.2349 252.847C93.5895 257.182 94.1231 262.274 92.7183 267.002Z" fill="#1E1E1E" stroke="#070302" stroke-miterlimit="10"/>
</svg>
